<?xml version="1.0" encoding="utf-8" standalone="no"?>
<!DOCTYPE svg PUBLIC "-//W3C//DTD SVG 1.1//EN"
  "http://www.w3.org/Graphics/SVG/1.1/DTD/svg11.dtd">
<svg xmlns:xlink="http://www.w3.org/1999/xlink" width="99.626401pt" height="99.626401pt" viewBox="0 0 99.626401 99.626401" xmlns="http://www.w3.org/2000/svg" version="1.1">
 <metadata>
  <rdf:RDF xmlns:dc="http://purl.org/dc/elements/1.1/" xmlns:cc="http://creativecommons.org/ns#" xmlns:rdf="http://www.w3.org/1999/02/22-rdf-syntax-ns#">
   <cc:Work>
    <dc:type rdf:resource="http://purl.org/dc/dcmitype/StillImage"/>
    <dc:date>2024-08-25T14:00:49.468064</dc:date>
    <dc:format>image/svg+xml</dc:format>
    <dc:creator>
     <cc:Agent>
      <dc:title>Matplotlib v3.9.1, https://matplotlib.org/</dc:title>
     </cc:Agent>
    </dc:creator>
   </cc:Work>
  </rdf:RDF>
 </metadata>
 <defs>
  <style type="text/css">*{stroke-linejoin: round; stroke-linecap: butt}</style>
 </defs>
 <g id="figure_1">
  <g id="patch_1">
   <path d="M 0 99.626401 
L 99.626401 99.626401 
L 99.626401 0 
L 0 0 
L 0 99.626401 
z
" style="fill: none"/>
  </g>
  <g id="axes_1">
   <g id="line2d_1">
    <path d="M 48.618578 77.573491 
L 47.811277 75.340381 
L 46.845677 73.29304 
L 45.734387 71.418342 
L 44.302119 69.470392 
L 42.714849 67.711199 
L 40.9914 66.12117 
L 38.913175 64.510197 
L 36.462423 62.908317 
L 33.63688 61.33073 
L 29.919246 59.524279 
L 17.946681 53.927091 
L 15.411503 52.381563 
L 13.504161 50.981827 
L 11.775807 49.430435 
L 10.411417 47.901552 
L 9.228443 46.211208 
L 8.356955 44.584307 
L 7.651381 42.805661 
L 7.255964 41.435024 
L 7.255964 41.435024 
" clip-path="url(#pb993ba2f9d)" style="fill: none; stroke: #009999; stroke-width: 2; stroke-linecap: square"/>
   </g>
   <g id="line2d_2">
    <path d="M 48.618578 77.573491 
L 48.36018 75.200385 
L 47.898807 72.939096 
L 47.250848 70.780727 
L 46.319275 68.464507 
L 45.195635 66.254621 
L 43.750265 63.908498 
L 41.957966 61.440589 
L 39.809504 58.856755 
L 36.922496 55.741506 
L 30.887593 49.669986 
L 27.390087 45.971198 
L 25.052842 43.202601 
L 23.257965 40.764126 
L 21.809754 38.450438 
L 20.683152 36.274364 
L 19.748234 33.996335 
L 19.09698 31.875589 
L 19.028335 31.603685 
L 19.028335 31.603685 
" clip-path="url(#pb993ba2f9d)" style="fill: none; stroke: #2aaaaa; stroke-width: 2; stroke-linecap: square"/>
   </g>
   <g id="line2d_3">
    <path d="M 48.618578 77.573491 
L 47.543704 74.432999 
L 46.621441 71.014039 
L 45.940101 67.602936 
L 45.478817 64.200228 
L 45.203219 60.524057 
L 45.137426 56.577607 
L 45.296003 52.364604 
L 45.711827 47.61034 
L 46.40323 42.324299 
L 47.542432 35.416757 
L 49.852963 22.05291 
L 49.852963 22.05291 
" clip-path="url(#pb993ba2f9d)" style="fill: none; stroke: #55bbbb; stroke-width: 2; stroke-linecap: square"/>
   </g>
   <g id="line2d_4">
    <path d="M 48.618578 77.573491 
L 48.492574 74.458245 
L 48.614133 71.477689 
L 48.966691 68.625027 
L 49.533681 65.893463 
L 50.298537 63.276199 
L 51.348645 60.521114 
L 52.596079 57.887063 
L 54.156057 55.14096 
L 55.896005 52.516387 
L 58.115215 49.592316 
L 60.669891 46.604015 
L 63.900049 43.183926 
L 68.512031 38.663363 
L 74.079119 33.283058 
L 74.079119 33.283058 
" clip-path="url(#pb993ba2f9d)" style="fill: none; stroke: #80cccc; stroke-width: 2; stroke-linecap: square"/>
   </g>
   <g id="line2d_5">
    <path d="M 48.618578 77.573491 
L 48.604128 75.346676 
L 48.83587 73.31165 
L 49.298714 71.458407 
L 49.977574 69.776941 
L 50.857361 68.257246 
L 51.922988 66.889318 
L 53.159366 65.663149 
L 54.762097 64.422562 
L 56.545622 63.339126 
L 58.740149 62.289509 
L 61.374444 61.308505 
L 64.459571 60.420916 
L 68.280977 59.579043 
L 73.108946 58.760644 
L 86.437042 56.65208 
L 89.24645 55.92621 
L 91.291908 55.189248 
L 92.370437 54.676372 
L 92.370437 54.676372 
" clip-path="url(#pb993ba2f9d)" style="fill: none; stroke: #aadddd; stroke-width: 2; stroke-linecap: square"/>
   </g>
   <g id="line2d_6">
    <path d="M 48.618578 77.573491 
L 48.059625 75.142602 
L 47.785547 72.845991 
L 47.766005 70.942112 
L 47.980086 68.881863 
L 48.429992 66.939454 
L 49.098663 65.109169 
L 49.969037 63.385289 
L 51.024053 61.762098 
L 52.410409 60.049242 
L 53.984567 58.448443 
L 55.924349 56.791301 
L 58.251492 55.103294 
L 60.970666 53.405998 
L 64.306252 51.590887 
L 68.712385 49.471208 
L 80.677375 44.032927 
L 80.677375 44.032927 
" clip-path="url(#pb993ba2f9d)" style="fill: none; stroke: #d4eeee; stroke-width: 2; stroke-linecap: square"/>
   </g>
   <g id="line2d_7">
    <path d="M 48.618578 77.573491 
L 47.421161 75.389358 
L 46.503784 73.287225 
L 45.85312 71.266411 
L 45.455841 69.326234 
L 45.29862 67.466012 
L 45.368128 65.685062 
L 45.651037 63.982702 
L 46.13402 62.358251 
L 46.803748 60.811025 
L 47.780723 59.136455 
L 48.964308 57.560842 
L 50.334608 56.083169 
L 52.074608 54.536586 
L 53.997413 53.11122 
L 56.313812 51.667882 
L 59.035751 50.248615 
L 61.889719 49.003205 
L 65.092946 47.839747 
L 68.593089 46.805279 
L 72.301872 45.94914 
L 75.843724 45.355131 
L 77.982877 45.109149 
L 77.982877 45.109149 
" clip-path="url(#pb993ba2f9d)" style="fill: none; stroke: #ffffff; stroke-width: 2; stroke-linecap: square"/>
   </g>
   <g id="line2d_8">
    <path d="M 48.618578 77.573491 
L 47.416494 74.263145 
L 46.478167 70.973091 
L 45.856408 68.018164 
L 45.4571 65.114549 
L 45.282373 62.278696 
L 45.334356 59.527054 
L 45.615176 56.876071 
L 46.06533 54.589844 
L 46.704118 52.410467 
L 47.533093 50.34993 
L 48.553806 48.420223 
L 49.767809 46.633339 
L 51.010445 45.174592 
L 52.408121 43.846589 
L 53.961925 42.657751 
L 55.672947 41.616501 
L 57.542278 40.73126 
L 59.571008 40.010449 
L 61.760225 39.462492 
L 64.111021 39.095808 
L 66.624485 38.918822 
L 69.301706 38.939953 
L 69.996727 38.977179 
L 69.996727 38.977179 
" clip-path="url(#pb993ba2f9d)" style="fill: none; stroke: #d5eeff; stroke-width: 2; stroke-linecap: square"/>
   </g>
   <g id="line2d_9">
    <path d="M 48.618578 77.573491 
L 47.255226 73.465906 
L 41.987737 58.354097 
L 41.188646 55.135371 
L 40.705266 52.293123 
L 40.521397 49.828464 
L 40.600134 47.729064 
L 40.890207 45.972962 
L 41.33168 44.531997 
L 41.96348 43.189411 
L 42.800094 41.953922 
L 43.856011 40.834247 
L 45.14572 39.8391 
L 46.683709 38.9772 
L 48.484466 38.257262 
L 50.562479 37.688003 
L 52.932237 37.278139 
L 55.608228 37.036387 
L 58.604941 36.971463 
L 59.060069 36.977131 
L 59.060069 36.977131 
" clip-path="url(#pb993ba2f9d)" style="fill: none; stroke: #aaddff; stroke-width: 2; stroke-linecap: square"/>
   </g>
   <g id="line2d_10">
    <path d="M 48.618578 77.573491 
L 48.517239 75.761351 
L 48.176479 73.945652 
L 47.622968 72.12937 
L 46.764088 70.056722 
L 45.556905 67.73426 
L 43.814839 64.917927 
L 41.327713 61.386079 
L 34.233507 51.596767 
L 32.975685 49.38235 
L 32.135028 47.462291 
L 31.667108 45.818873 
L 31.505995 44.433399 
L 31.57359 43.287231 
L 31.848785 42.181238 
L 32.348373 41.117296 
L 33.08915 40.097277 
L 34.087913 39.123056 
L 35.361457 38.196507 
L 36.926578 37.319504 
L 39.143479 36.361455 
L 41.80678 35.47637 
L 43.997218 34.890488 
L 43.997218 34.890488 
" clip-path="url(#pb993ba2f9d)" style="fill: none; stroke: #80ccff; stroke-width: 2; stroke-linecap: square"/>
   </g>
   <g id="line2d_11">
    <path d="M 48.618578 77.573491 
L 48.476023 75.826452 
L 48.081595 73.876821 
L 47.465383 72.01643 
L 46.652459 70.238816 
L 45.51469 68.300326 
L 44.013324 66.226656 
L 42.132724 64.039505 
L 39.680556 61.55169 
L 35.656088 57.841944 
L 31.897489 54.299894 
L 30.039963 52.275101 
L 28.779417 50.610515 
L 27.901198 49.112927 
L 27.350499 47.780761 
L 27.029291 46.421498 
L 26.955631 45.229951 
L 27.084784 44.009677 
L 27.432538 42.756608 
L 28.014681 41.466673 
L 28.847002 40.135801 
L 29.945288 38.759924 
L 31.583835 37.092421 
L 33.630951 35.351656 
L 34.639571 34.581586 
L 34.639571 34.581586 
" clip-path="url(#pb993ba2f9d)" style="fill: none; stroke: #55bbff; stroke-width: 2; stroke-linecap: square"/>
   </g>
   <g id="line2d_12">
    <path d="M 48.618578 77.573491 
L 48.361392 75.642865 
L 47.892542 73.830723 
L 47.23034 72.127749 
L 46.260265 70.30322 
L 45.088894 68.595208 
L 43.56452 66.795655 
L 41.659871 64.924387 
L 39.370004 62.990532 
L 36.043565 60.500171 
L 28.112995 54.698758 
L 25.989836 52.830426 
L 24.288073 51.0389 
L 22.988095 49.327544 
L 22.049432 47.710995 
L 21.41796 46.211497 
L 20.98287 44.622892 
L 20.762474 42.935864 
L 20.775079 41.141099 
L 21.038997 39.229281 
L 21.572537 37.191095 
L 21.671834 36.889066 
L 21.671834 36.889066 
" clip-path="url(#pb993ba2f9d)" style="fill: none; stroke: #2aaaff; stroke-width: 2; stroke-linecap: square"/>
   </g>
  </g>
 </g>
 <defs>
  <clipPath id="pb993ba2f9d">
   <rect x="3.00024" y="19.276881" width="93.625921" height="61.07264"/>
  </clipPath>
 </defs>
</svg>
